# Blender v2.76 (sub 0) OBJ File: 'br_pine_low_poly.blend'
# www.blender.org
mtllib br_lowpoly_bush_b_04.mtl
o Icosphere.009
v 0.036496 -1.116990 -0.025265
v 0.701157 -0.494989 -0.372411
v 0.859286 -0.689868 0.675227
v -0.419250 -0.655587 0.671314
v -1.046219 -0.630113 -0.127361
v -0.418191 -0.271632 -0.775913
v 0.758367 0.057638 0.960250
v -0.667086 0.323850 1.124796
v -1.323870 0.379692 -0.153810
v -0.073557 0.131173 -1.319412
v 1.085887 0.265303 -0.335047
v -0.235694 1.634168 0.133078
v 0.815273 1.178851 0.175900
v 0.341166 1.317087 -0.776353
v -0.567172 1.148129 -0.261929
v -0.364997 0.945138 0.698519
v 0.396224 0.992835 0.718128
v -0.834981 0.443183 -1.094054
v 0.053104 0.858021 -1.375693
v -0.668920 1.050156 -0.806184
vt 0.145721 0.137909
vt 0.018342 0.137909
vt 0.018342 0.010529
vt 0.184784 0.544158
vt 0.057404 0.544158
vt 0.057404 0.416779
vt 0.993377 0.540252
vt 0.865998 0.540252
vt 0.865998 0.412873
vt 0.977752 0.337127
vt 0.850373 0.337127
vt 0.850373 0.209748
vt 0.989471 0.548065
vt 0.862092 0.548065
vt 0.862092 0.420685
vt 0.184784 0.341033
vt 0.057404 0.341033
vt 0.057404 0.213654
vt 0.356658 0.548065
vt 0.229279 0.548065
vt 0.229279 0.420685
vt 0.985565 0.536346
vt 0.858185 0.536346
vt 0.858185 0.408967
vt 0.805877 0.528533
vt 0.678498 0.528533
vt 0.678498 0.401154
vt 0.364471 0.329315
vt 0.237092 0.329315
vt 0.237092 0.201935
vt 0.184784 0.766815
vt 0.057404 0.766815
vt 0.057404 0.639435
vt 0.985565 0.770721
vt 0.858185 0.770721
vt 0.858185 0.643342
vt 0.794158 0.341033
vt 0.666779 0.341033
vt 0.666779 0.213654
vt 0.977752 0.766815
vt 0.850373 0.766815
vt 0.850373 0.703125
vt 0.850373 0.639435
vt 0.786346 0.532440
vt 0.658967 0.532440
vt 0.658967 0.405060
vt 0.176971 0.766815
vt 0.049592 0.766815
vt 0.049592 0.639435
vt 0.966033 0.774627
vt 0.838654 0.774627
vt 0.838654 0.647248
vt 0.774627 0.958221
vt 0.710938 0.958221
vt 0.710938 0.894531
vt 0.292969 0.484375
vt 0.794158 0.778533
vt 0.666779 0.778533
vt 0.666779 0.651154
vt 0.858185 0.472656
vt 0.563690 0.563690
vt 0.436310 0.563690
vt 0.436310 0.436310
vt 0.308594 0.527344
vt 0.244904 0.527344
vt 0.244904 0.463654
vt 0.546875 0.699219
vt 0.546875 0.762908
vt 0.483185 0.699219
vt 0.957031 0.926971
vt 0.893342 0.926971
vt 0.893342 0.863281
vn 0.039400 -0.984500 -0.170700
vn 0.648700 -0.476400 -0.593500
vn 0.731300 -0.523000 0.437700
vn -0.091400 -0.693900 -0.714200
vn -0.384700 -0.640900 0.664300
vn -0.750300 -0.656600 -0.075900
vn 0.931700 0.023600 -0.362300
vn 0.642900 0.030500 0.765300
vn -0.483700 0.123200 0.866500
vn -0.989400 0.144500 -0.009600
vn 0.177600 -0.430200 -0.885100
vn -0.689000 0.024300 -0.724300
vn -0.319800 0.931400 0.174000
vn -0.646100 0.763100 -0.011900
vn -0.411900 0.599500 0.686200
vn 0.369500 0.489500 0.789800
vn 0.832800 0.517600 0.196200
vn 0.496800 0.676600 -0.543500
vn 0.317600 0.322800 -0.891600
vn -0.558200 0.732000 -0.390600
usemtl Material.009
s 1
f 1/1/1 2/2/2 3/3/3
f 2/4/2 1/5/1 6/6/4
f 1/7/1 3/8/3 4/9/5
f 1/10/1 4/11/5 5/12/6
f 1/13/1 5/14/6 6/15/4
f 2/16/2 6/17/4 11/18/7
f 3/19/3 2/20/2 7/21/8
f 4/22/5 3/23/3 8/24/9
f 5/25/6 4/26/5 9/27/10
f 6/28/4 5/29/6 10/30/11
f 2/31/2 11/32/7 7/33/8
f 3/34/3 7/35/8 8/36/9
f 4/37/5 8/38/9 9/39/10
f 5/40/6 9/41/10 18/42/12 10/43/11
f 6/44/4 10/45/11 11/46/7
f 12/10/13 15/11/14 16/12/15
f 12/13/13 16/14/15 17/15/16
f 13/4/17 12/5/13 17/6/16
f 12/47/13 13/48/17 14/49/18
f 12/50/13 14/51/18 15/52/14
f 17/44/16 7/45/8 11/46/7
f 14/53/18 19/54/19 20/55/20
f 13/31/17 11/32/7 10/33/11
f 17/28/16 16/29/15 7/30/8
f 16/25/15 15/26/14 8/27/9
f 14/19/18 13/20/17 10/21/11 19/56/19
f 16/57/15 8/58/9 7/59/8
f 15/22/14 14/23/18 20/60/20 9/24/10
f 13/16/17 17/17/16 11/18/7
f 15/61/14 9/62/10 8/63/9
f 20/64/20 18/65/12 9/66/10
f 20/67/20 19/68/19 18/69/12
f 19/70/19 10/71/11 18/72/12
