# Blender v2.76 (sub 0) OBJ File: 'br_pine_low_poly.blend'
# www.blender.org
mtllib br_lowpoly_bush_01.mtl
o Icosphere.001
v -0.181099 -0.696421 0.069507
v 0.733845 -0.311070 0.787415
v -0.378213 -0.234500 1.067050
v -0.873500 -0.226742 0.058875
v -0.276385 -0.447215 -0.850640
v 0.468859 -0.430352 -0.322924
v 0.316840 0.389205 0.933372
v -0.723600 0.447215 0.525720
v -0.754226 0.369095 -0.514053
v 0.276385 0.447215 -1.131281
v 0.945358 0.362213 -0.118274
v -0.003928 0.863394 -0.049883
v -0.217880 0.725907 -0.807483
v -0.358037 0.933997 -0.266783
v 0.136228 0.936322 -0.590582
vt 0.145721 0.137909
vt 0.018342 0.137909
vt 0.018342 0.010529
vt 0.184784 0.544158
vt 0.057404 0.544158
vt 0.057404 0.416779
vt 0.993377 0.540252
vt 0.865998 0.540252
vt 0.865998 0.412873
vt 0.977752 0.337127
vt 0.850373 0.337127
vt 0.850373 0.209748
vt 0.989471 0.548065
vt 0.862092 0.548065
vt 0.862092 0.420685
vt 0.184784 0.341033
vt 0.057404 0.341033
vt 0.057404 0.213654
vt 0.356658 0.548065
vt 0.229279 0.548065
vt 0.229279 0.420685
vt 0.985565 0.536346
vt 0.858185 0.536346
vt 0.858185 0.408967
vt 0.805877 0.528533
vt 0.678498 0.528533
vt 0.678498 0.401154
vt 0.364471 0.329315
vt 0.237092 0.329315
vt 0.237092 0.201935
vt 0.184784 0.766815
vt 0.057404 0.766815
vt 0.057404 0.639435
vt 0.985565 0.770721
vt 0.858185 0.770721
vt 0.858185 0.643342
vt 0.563690 0.563690
vt 0.436310 0.563690
vt 0.436310 0.436310
vt 0.977752 0.766815
vt 0.850373 0.766815
vt 0.850373 0.703125
vt 0.850373 0.639435
vt 0.786346 0.532440
vt 0.658967 0.532440
vt 0.658967 0.405060
vt 0.798065 0.762908
vt 0.670685 0.762908
vt 0.670685 0.635529
vt 0.794158 0.954315
vt 0.666779 0.954315
vt 0.666779 0.826935
vt 0.356658 0.766815
vt 0.229279 0.766815
vt 0.229279 0.639435
vt 0.292969 0.703125
vt 0.169159 0.762908
vt 0.105469 0.762908
vt 0.105469 0.699219
vt 0.981658 0.770721
vt 0.854279 0.770721
vt 0.854279 0.707031
vt 0.854279 0.643342
vt 0.041779 0.699219
vt 0.041779 0.635529
vt 0.125000 0.902344
vt 0.125000 0.966033
vt 0.061310 0.902344
vt 0.796875 0.938690
vt 0.733185 0.938690
vt 0.733185 0.875000
vn -0.132100 -0.990100 0.047800
vn 0.701200 -0.452200 0.551200
vn -0.383600 -0.342000 0.857800
vn 0.601800 -0.718400 -0.348900
vn -0.914200 -0.404700 0.017900
vn -0.249400 -0.635200 -0.731000
vn 0.956300 0.276800 -0.093800
vn 0.297900 0.561800 0.771800
vn -0.714600 0.515800 0.472500
vn -0.855800 0.284300 -0.432200
vn 0.318000 0.239500 -0.917300
vn -0.424100 0.556300 -0.714500
vn 0.101200 0.974700 0.199400
vn -0.456100 0.888600 -0.047100
vn 0.248600 0.922400 -0.295600
usemtl Material.000
s 1
f 1/1/1 2/2/2 3/3/3
f 2/4/2 1/5/1 6/6/4
f 1/7/1 3/8/3 4/9/5
f 1/10/1 4/11/5 5/12/6
f 1/13/1 5/14/6 6/15/4
f 2/16/2 6/17/4 11/18/7
f 3/19/3 2/20/2 7/21/8
f 4/22/5 3/23/3 8/24/9
f 5/25/6 4/26/5 9/27/10
f 6/28/4 5/29/6 10/30/11
f 2/31/2 11/32/7 7/33/8
f 3/34/3 7/35/8 8/36/9
f 4/37/5 8/38/9 9/39/10
f 5/40/6 9/41/10 13/42/12 10/43/11
f 6/44/4 10/45/11 11/46/7
f 7/47/8 11/48/7 12/49/13
f 8/50/9 7/51/8 12/52/13
f 9/53/10 8/54/9 12/55/13 14/56/14
f 10/57/11 13/58/12 15/59/15
f 11/60/7 10/61/11 15/62/15 12/63/13
f 15/59/15 14/64/14 12/65/13
f 15/66/15 13/67/12 14/68/14
f 13/69/12 9/70/10 14/71/14
