# Blender v2.76 (sub 0) OBJ File: 'br_pine_low_poly.blend'
# www.blender.org
mtllib br_lowpoly_bush_b_01.mtl
o Icosphere.006
v 0.000000 -0.898586 0.136479
v 0.728553 -0.447215 -0.518834
v 0.718576 -0.447215 0.532566
v -0.257033 -0.361388 0.776904
v -0.894373 -0.447215 -0.008494
v -0.268296 -0.528585 -0.747978
v 0.934168 0.562682 0.896978
v -0.229989 0.448706 1.136350
v -1.080157 0.517265 -0.120473
v 0.047380 0.308443 -1.242576
v 1.213681 0.446994 -0.540307
v 0.072376 1.924367 -0.173294
v 0.882553 1.403762 -0.145186
v 0.134643 1.342804 -0.884222
v -0.624498 1.238660 -0.209115
v -0.459309 1.438040 0.525752
v 0.410813 1.342804 0.776925
vt 0.145721 0.137909
vt 0.018342 0.137909
vt 0.018342 0.010529
vt 0.184784 0.544158
vt 0.057404 0.544158
vt 0.057404 0.416779
vt 0.993377 0.540252
vt 0.865998 0.540252
vt 0.865998 0.412873
vt 0.977752 0.337127
vt 0.850373 0.337127
vt 0.850373 0.209748
vt 0.989471 0.548065
vt 0.862092 0.548065
vt 0.862092 0.420685
vt 0.184784 0.341033
vt 0.057404 0.341033
vt 0.057404 0.213654
vt 0.356658 0.548065
vt 0.229279 0.548065
vt 0.229279 0.420685
vt 0.985565 0.536346
vt 0.858185 0.536346
vt 0.858185 0.408967
vt 0.805877 0.528533
vt 0.678498 0.528533
vt 0.678498 0.401154
vt 0.364471 0.329315
vt 0.237092 0.329315
vt 0.237092 0.201935
vt 0.184784 0.766815
vt 0.057404 0.766815
vt 0.057404 0.639435
vt 0.985565 0.770721
vt 0.858185 0.770721
vt 0.858185 0.643342
vt 0.794158 0.341033
vt 0.666779 0.341033
vt 0.666779 0.213654
vt 0.977752 0.766815
vt 0.850373 0.766815
vt 0.850373 0.639435
vt 0.786346 0.532440
vt 0.658967 0.532440
vt 0.658967 0.405060
vt 0.176971 0.766815
vt 0.049592 0.766815
vt 0.049592 0.639435
vt 0.966033 0.774627
vt 0.838654 0.774627
vt 0.838654 0.647248
vt 0.774627 0.958221
vt 0.647248 0.958221
vt 0.647248 0.830842
vt 0.794158 0.778533
vt 0.666779 0.778533
vt 0.666779 0.651154
vt 0.563690 0.563690
vt 0.436310 0.563690
vt 0.436310 0.436310
vn -0.012100 -0.990500 0.136600
vn 0.609600 -0.595700 -0.523000
vn 0.649400 -0.600700 0.466200
vn -0.303100 -0.622400 -0.721600
vn -0.338300 -0.529500 0.777900
vn -0.856500 -0.515400 0.026000
vn 0.911600 -0.002900 -0.411100
vn 0.719600 0.105600 0.686300
vn -0.333500 0.050900 0.941300
vn -0.984600 0.157000 -0.077200
vn -0.044200 -0.089100 -0.995000
vn -0.055300 0.988600 -0.139700
vn -0.827900 0.508200 -0.237300
vn -0.664300 0.526300 0.530800
vn 0.258900 0.505400 0.823100
vn 0.828800 0.554100 -0.078000
vn 0.030200 0.522000 -0.852400
usemtl Material.006
s 1
f 1/1/1 2/2/2 3/3/3
f 2/4/2 1/5/1 6/6/4
f 1/7/1 3/8/3 4/9/5
f 1/10/1 4/11/5 5/12/6
f 1/13/1 5/14/6 6/15/4
f 2/16/2 6/17/4 11/18/7
f 3/19/3 2/20/2 7/21/8
f 4/22/5 3/23/3 8/24/9
f 5/25/6 4/26/5 9/27/10
f 6/28/4 5/29/6 10/30/11
f 2/31/2 11/32/7 7/33/8
f 3/34/3 7/35/8 8/36/9
f 4/37/5 8/38/9 9/39/10
f 5/40/6 9/41/10 10/42/11
f 6/43/4 10/44/11 11/45/7
f 12/10/12 15/11/13 16/12/14
f 12/13/12 16/14/14 17/15/15
f 13/4/16 12/5/12 17/6/15
f 12/46/12 13/47/16 14/48/17
f 12/49/12 14/50/17 15/51/13
f 17/43/15 7/44/8 11/45/7
f 14/52/17 10/53/11 9/54/10
f 13/31/16 11/32/7 10/33/11
f 17/28/15 16/29/14 7/30/8
f 16/25/14 15/26/13 8/27/9
f 14/19/17 13/20/16 10/21/11
f 16/55/14 8/56/9 7/57/8
f 15/22/13 14/23/17 9/24/10
f 13/16/16 17/17/15 11/18/7
f 15/58/13 9/59/10 8/60/9
