# Blender v2.76 (sub 0) OBJ File: 'br_pine_low_poly.blend'
# www.blender.org
mtllib br_lowpoly_bush_b_03.mtl
o Icosphere.008
v 0.024331 -1.127374 -0.016844
v 0.766916 -0.537614 -0.351167
v 0.812383 -0.679870 0.627674
v -0.374318 -0.693401 0.730205
v -0.995604 -0.649495 -0.087739
v -0.368226 -0.408168 -0.824450
v 0.796338 0.151944 0.971069
v -0.882403 0.493871 0.944076
v -1.121649 0.399615 -0.402475
v -0.124100 0.201376 -1.367697
v 1.258663 0.335934 -0.367913
v -0.007249 1.640249 0.046244
v 0.879825 1.184870 -0.147678
v 0.293909 1.246808 -1.008004
v -0.731070 1.151830 -0.571228
v -0.616082 1.033370 0.730754
v 0.419444 1.031222 0.910757
v -0.483953 1.500989 -0.434206
v -0.370129 1.442005 0.272951
v -0.744180 1.238343 0.034842
vt 0.145721 0.137909
vt 0.018342 0.137909
vt 0.018342 0.010529
vt 0.184784 0.544158
vt 0.057404 0.544158
vt 0.057404 0.416779
vt 0.993377 0.540252
vt 0.865998 0.540252
vt 0.865998 0.412873
vt 0.977752 0.337127
vt 0.850373 0.337127
vt 0.850373 0.209748
vt 0.989471 0.548065
vt 0.862092 0.548065
vt 0.862092 0.420685
vt 0.184784 0.341033
vt 0.057404 0.341033
vt 0.057404 0.213654
vt 0.356658 0.548065
vt 0.229279 0.548065
vt 0.229279 0.420685
vt 0.985565 0.536346
vt 0.858185 0.536346
vt 0.858185 0.408967
vt 0.805877 0.528533
vt 0.678498 0.528533
vt 0.678498 0.401154
vt 0.364471 0.329315
vt 0.237092 0.329315
vt 0.237092 0.201935
vt 0.184784 0.766815
vt 0.057404 0.766815
vt 0.057404 0.639435
vt 0.985565 0.770721
vt 0.858185 0.770721
vt 0.858185 0.643342
vt 0.794158 0.341033
vt 0.666779 0.341033
vt 0.666779 0.213654
vt 0.977752 0.766815
vt 0.850373 0.766815
vt 0.850373 0.639435
vt 0.786346 0.532440
vt 0.658967 0.532440
vt 0.658967 0.405060
vt 0.130096 0.301971
vt 0.066406 0.301971
vt 0.066406 0.238281
vt 0.973846 0.516815
vt 0.925781 0.548065
vt 0.846467 0.516815
vt 0.912873 0.408967
vt 0.176971 0.766815
vt 0.049592 0.766815
vt 0.049592 0.639435
vt 0.966033 0.774627
vt 0.838654 0.774627
vt 0.838654 0.647248
vt 0.902344 0.710938
vt 0.774627 0.958221
vt 0.647248 0.958221
vt 0.647248 0.830842
vt 0.770721 0.477752
vt 0.734375 0.567596
vt 0.794158 0.778533
vt 0.666779 0.778533
vt 0.666779 0.651154
vt 0.563690 0.563690
vt 0.436310 0.563690
vt 0.436310 0.436310
vt 0.929688 0.691406
vt 0.865998 0.691406
vt 0.920685 0.768341
vt 0.746094 0.472656
vt 0.746094 0.536346
vt 0.682404 0.472656
vt 0.914062 0.337127
vt 0.850373 0.273438
vn 0.037200 -0.990600 -0.131400
vn 0.668000 -0.544500 -0.507200
vn 0.685600 -0.542900 0.485000
vn -0.209500 -0.607800 -0.765900
vn -0.349200 -0.562600 0.749300
vn -0.857400 -0.514600 0.002700
vn 0.946700 -0.007900 -0.321800
vn 0.584600 -0.065500 0.808600
vn -0.679700 0.040700 0.732300
vn -0.952900 0.083900 -0.291200
vn -0.037000 -0.146200 -0.988500
vn 0.042100 0.991900 0.119300
vn -0.420300 0.869300 -0.260100
vn -0.353300 0.841700 0.408300
vn -0.518600 0.553600 0.651500
vn 0.320700 0.488700 0.811300
vn 0.787900 0.611000 -0.076400
vn 0.335100 0.508300 -0.793300
vn -0.694400 0.479700 -0.536200
vn -0.806000 0.575000 0.140400
usemtl Material.008
s 1
f 1/1/1 2/2/2 3/3/3
f 2/4/2 1/5/1 6/6/4
f 1/7/1 3/8/3 4/9/5
f 1/10/1 4/11/5 5/12/6
f 1/13/1 5/14/6 6/15/4
f 2/16/2 6/17/4 11/18/7
f 3/19/3 2/20/2 7/21/8
f 4/22/5 3/23/3 8/24/9
f 5/25/6 4/26/5 9/27/10
f 6/28/4 5/29/6 10/30/11
f 2/31/2 11/32/7 7/33/8
f 3/34/3 7/35/8 8/36/9
f 4/37/5 8/38/9 9/39/10
f 5/40/6 9/41/10 10/42/11
f 6/43/4 10/44/11 11/45/7
f 12/46/12 18/47/13 19/48/14
f 12/49/12 19/50/14 16/51/15 17/52/16
f 13/4/17 12/5/12 17/6/16
f 12/53/12 13/54/17 14/55/18
f 12/56/12 14/57/18 15/58/19 18/59/13
f 17/43/16 7/44/8 11/45/7
f 14/60/18 10/61/11 9/62/10
f 13/31/17 11/32/7 10/33/11
f 17/28/16 16/29/15 7/30/8
f 16/63/15 20/64/20 15/26/19 8/27/9
f 14/19/18 13/20/17 10/21/11
f 16/65/15 8/66/9 7/67/8
f 15/22/19 14/23/18 9/24/10
f 13/16/17 17/17/16 11/18/7
f 15/68/19 9/69/10 8/70/9
f 19/71/14 20/72/20 16/73/15
f 19/74/14 18/75/13 20/76/20
f 18/77/13 15/11/19 20/78/20
