# Blender v2.76 (sub 0) OBJ File: 'br_pine_low_poly.blend'
# www.blender.org
mtllib br_lowpoly_bush_b_02.mtl
o Icosphere.007
v 0.075352 -0.837911 0.200290
v 0.722561 -0.363924 -0.520526
v 0.722256 -0.447868 0.527566
v -0.276188 -0.530910 0.846589
v -0.810172 -0.289797 -0.176504
v -0.167311 -0.395470 -0.685711
v 0.866981 0.297523 0.987783
v -0.665757 0.545118 1.141536
v -1.248479 0.670233 -0.383732
v -0.012531 0.563471 -1.202862
v 1.078112 0.613718 -0.513406
v -0.124530 1.895766 0.091505
v 0.754088 1.437324 -0.110017
v 0.033754 1.356180 -0.715117
v -0.755771 1.356706 -0.363506
v -0.551809 1.345923 0.684014
v 0.288453 1.390028 0.701014
v 1.092592 0.514451 0.428345
v 0.803328 1.060703 0.284961
v 0.697762 0.902606 1.035555
vt 0.145721 0.137909
vt 0.018342 0.137909
vt 0.018342 0.010529
vt 0.184784 0.544158
vt 0.057404 0.544158
vt 0.057404 0.416779
vt 0.993377 0.540252
vt 0.865998 0.540252
vt 0.865998 0.412873
vt 0.977752 0.337127
vt 0.850373 0.337127
vt 0.850373 0.209748
vt 0.989471 0.548065
vt 0.862092 0.548065
vt 0.862092 0.420685
vt 0.184784 0.341033
vt 0.057404 0.341033
vt 0.057404 0.213654
vt 0.356658 0.548065
vt 0.229279 0.548065
vt 0.229279 0.420685
vt 0.376190 0.329315
vt 0.248810 0.329315
vt 0.248810 0.201935
vt 0.805877 0.528533
vt 0.678498 0.528533
vt 0.678498 0.401154
vt 0.364471 0.329315
vt 0.237092 0.329315
vt 0.237092 0.201935
vt 0.184784 0.766815
vt 0.057404 0.766815
vt 0.057404 0.703125
vt 0.057404 0.639435
vt 0.985565 0.770721
vt 0.858185 0.770721
vt 0.858185 0.643342
vt 0.794158 0.341033
vt 0.666779 0.341033
vt 0.666779 0.213654
vt 0.977752 0.766815
vt 0.850373 0.766815
vt 0.850373 0.639435
vt 0.786346 0.532440
vt 0.658967 0.532440
vt 0.658967 0.405060
vt 0.173065 0.333221
vt 0.045685 0.333221
vt 0.045685 0.205842
vt 0.176971 0.766815
vt 0.049592 0.766815
vt 0.049592 0.639435
vt 0.966033 0.774627
vt 0.838654 0.774627
vt 0.838654 0.647248
vt 0.524627 0.739471
vt 0.460938 0.739471
vt 0.460938 0.675781
vt 0.774627 0.958221
vt 0.647248 0.958221
vt 0.647248 0.830842
vt 0.575408 0.551971
vt 0.448029 0.551971
vt 0.448029 0.424592
vt 0.531250 0.464844
vt 0.794158 0.778533
vt 0.666779 0.778533
vt 0.666779 0.651154
vt 0.985565 0.536346
vt 0.858185 0.536346
vt 0.858185 0.408967
vt 0.057404 0.277344
vt 0.563690 0.563690
vt 0.436310 0.563690
vt 0.436310 0.436310
vt 0.906250 0.468750
vt 0.842560 0.468750
vt 0.842560 0.405060
vt 0.914062 0.671875
vt 0.914062 0.735565
vt 0.850373 0.671875
vt 0.335938 0.520721
vt 0.291779 0.559783
vt 0.272248 0.457031
vn 0.004400 -0.999700 0.021900
vn 0.590400 -0.553700 -0.587200
vn 0.682200 -0.606000 0.409100
vn -0.195500 -0.643100 -0.740400
vn -0.279400 -0.634100 0.721000
vn -0.781200 -0.597400 -0.181100
vn 0.873200 0.089200 -0.479200
vn 0.622900 -0.164300 0.764800
vn -0.514900 0.052100 0.855600
vn -0.951800 0.086200 -0.294200
vn 0.007400 0.011000 -0.999900
vn 0.988700 0.035100 0.145800
vn -0.082700 0.995900 0.036300
vn -0.672600 0.628200 -0.391100
vn -0.575200 0.552000 0.603600
vn 0.263500 0.628200 0.732000
vn 0.709300 0.689900 -0.144400
vn 0.086700 0.639100 -0.764200
vn 0.403000 0.424600 0.810700
vn 0.836300 0.501400 0.221700
usemtl Material.007
s 1
f 1/1/1 2/2/2 3/3/3
f 2/4/2 1/5/1 6/6/4
f 1/7/1 3/8/3 4/9/5
f 1/10/1 4/11/5 5/12/6
f 1/13/1 5/14/6 6/15/4
f 2/16/2 6/17/4 11/18/7
f 3/19/3 2/20/2 7/21/8
f 4/22/5 3/23/3 8/24/9
f 5/25/6 4/26/5 9/27/10
f 6/28/4 5/29/6 10/30/11
f 2/31/2 11/32/7 18/33/12 7/34/8
f 3/35/3 7/36/8 8/37/9
f 4/38/5 8/39/9 9/40/10
f 5/41/6 9/42/10 10/43/11
f 6/44/4 10/45/11 11/46/7
f 12/47/13 15/48/14 16/49/15
f 12/13/13 16/14/15 17/15/16
f 13/4/17 12/5/13 17/6/16
f 12/50/13 13/51/17 14/52/18
f 12/53/13 14/54/18 15/55/14
f 17/56/16 20/57/19 19/58/20
f 14/59/18 10/60/11 9/61/10
f 13/31/17 11/32/7 10/34/11
f 17/62/16 16/63/15 7/64/8 20/65/19
f 16/25/15 15/26/14 8/27/9
f 14/19/18 13/20/17 10/21/11
f 16/66/15 8/67/9 7/68/8
f 15/69/14 14/70/18 9/71/10
f 13/16/17 17/17/16 19/72/20 11/18/7
f 15/73/14 9/74/10 8/75/9
f 19/76/20 18/77/12 11/78/7
f 19/79/20 20/80/19 18/81/12
f 20/82/19 7/83/8 18/84/12
