# Blender v2.76 (sub 0) OBJ File: 'br_pine_low_poly.blend'
# www.blender.org
mtllib br_lowpoly_pine_02.mtl
o Icosphere
v 0.000000 -1.000000 0.000000
v 0.723600 -0.447215 0.525720
v -0.276385 -0.447215 0.850640
v -0.894425 -0.447215 0.000000
v -0.276385 -0.447215 -0.850640
v 0.723600 -0.447215 -0.525720
v 0.276385 0.447215 0.850640
v -0.723600 0.447215 0.525720
v -0.723600 0.447215 -0.525720
v 0.276385 0.447215 -0.850640
v 0.894425 0.447215 0.000000
v 0.000000 1.000000 0.000000
vn 0.187600 -0.794700 0.577400
vn 0.607100 -0.794700 0.000000
vn -0.491100 -0.794700 0.356800
vn -0.491100 -0.794700 -0.356800
vn 0.187600 -0.794700 -0.577400
vn 0.982200 -0.187600 0.000000
vn 0.303500 -0.187600 0.934200
vn -0.794600 -0.187600 0.577400
vn -0.794600 -0.187600 -0.577400
vn 0.303500 -0.187600 -0.934200
vn 0.794600 0.187600 0.577400
vn -0.303500 0.187600 0.934200
vn -0.982200 0.187600 0.000000
vn -0.303500 0.187600 -0.934200
vn 0.794600 0.187600 -0.577400
vn 0.491100 0.794700 0.356800
vn -0.187600 0.794700 0.577400
vn -0.607100 0.794700 0.000000
vn -0.187600 0.794700 -0.577400
vn 0.491100 0.794700 -0.356800
usemtl None
s off
f 1//1 2//1 3//1
f 2//2 1//2 6//2
f 1//3 3//3 4//3
f 1//4 4//4 5//4
f 1//5 5//5 6//5
f 2//6 6//6 11//6
f 3//7 2//7 7//7
f 4//8 3//8 8//8
f 5//9 4//9 9//9
f 6//10 5//10 10//10
f 2//11 11//11 7//11
f 3//12 7//12 8//12
f 4//13 8//13 9//13
f 5//14 9//14 10//14
f 6//15 10//15 11//15
f 7//16 11//16 12//16
f 8//17 7//17 12//17
f 9//18 8//18 12//18
f 10//19 9//19 12//19
f 11//20 10//20 12//20
o Cylinder_Cylinder.002
v 0.084765 -0.270719 -0.676811
v -0.003072 0.735580 0.000963
v 0.447176 -0.266672 -0.466183
v 0.542570 -0.262988 0.042804
v 0.447176 -0.266672 0.451780
v -0.011805 -0.266672 0.641896
v -0.308489 -0.273091 0.377302
v -0.660903 -0.266672 -0.007202
v -0.459326 -0.268627 -0.314073
v 0.025972 -0.010544 -0.838925
v 0.576774 -0.253827 -0.624419
v 0.814301 -0.049989 -0.012649
v 0.606091 -0.246052 0.655176
v 0.064114 0.011067 0.798950
v -0.635407 -0.187231 0.689412
v -0.798370 -0.035962 -0.016152
v -0.562427 -0.230684 -0.586246
vt 0.518143 0.338587
vt 0.556105 0.322862
vt 0.571829 0.284901
vt 0.556105 0.246939
vt 0.518143 0.231215
vt 0.480182 0.246939
vt 0.464457 0.284901
vt 0.480182 0.322862
vt 0.042583 0.207777
vt 0.149954 0.207777
vt 0.149954 0.315149
vt 0.042583 0.315149
vt 0.237895 0.227309
vt 0.345267 0.227309
vt 0.345267 0.334680
vt 0.237895 0.334680
vt 0.659770 0.465590
vt 0.767142 0.465590
vt 0.767142 0.572962
vt 0.659770 0.572962
vt 0.667582 0.231215
vt 0.774954 0.231215
vt 0.774954 0.338587
vt 0.667582 0.338587
vt 0.237895 0.231215
vt 0.345267 0.231215
vt 0.345267 0.338587
vt 0.237895 0.338587
vt 0.663676 0.231215
vt 0.771048 0.231215
vt 0.771048 0.338587
vt 0.663676 0.338587
vt 0.866801 0.211684
vt 0.974173 0.211684
vt 0.974173 0.319055
vt 0.866801 0.319055
vt 0.866801 0.223402
vt 0.974173 0.223402
vt 0.974173 0.330774
vt 0.866801 0.330774
vt 0.667582 0.453871
vt 0.774954 0.453871
vt 0.774954 0.561243
vt 0.429301 0.672621
vt 0.536673 0.672621
vt 0.536673 0.779993
vt 0.062126 0.701066
vt 0.132609 0.701066
vt 0.132609 0.771549
vt 0.452739 0.426527
vt 0.560110 0.426527
vt 0.560110 0.533899
vt 0.222270 0.742934
vt 0.321829 0.664809
vt 0.314017 0.764368
vt 0.847270 0.660902
vt 0.954642 0.660902
vt 0.954642 0.768274
vt 0.218364 0.668715
vt 0.325735 0.668715
vt 0.325735 0.776087
vn -0.003100 -0.917300 -0.398100
vn 0.222600 -0.957600 -0.182700
vn 0.285100 -0.958500 -0.004500
vn 0.192800 -0.962500 0.190900
vn -0.017100 -0.910800 0.412500
vn -0.150000 -0.968900 0.196700
vn -0.408300 -0.912700 -0.011000
vn -0.271200 -0.945300 -0.181200
vn -0.000300 0.091600 -0.995800
vn 0.683000 -0.225100 -0.694800
vn 0.999400 0.011500 -0.033200
vn 0.668500 -0.230100 0.707200
vn 0.085600 0.122700 0.988700
vn -0.676700 -0.174600 0.715200
vn -0.995600 0.033900 -0.087300
vn -0.656600 -0.216300 -0.722500
vn 0.003800 0.999800 -0.018800
usemtl Material.001
s 1
f 13/1/21 15/2/22 16/3/23 17/4/24 18/5/25 19/6/26 20/7/27 21/8/28
f 15/9/22 13/10/21 22/11/29 23/12/30
f 16/13/23 15/14/22 23/15/30 24/16/31
f 17/17/24 16/18/23 24/19/31 25/20/32
f 18/21/25 17/22/24 25/23/32 26/24/33
f 19/25/26 18/26/25 26/27/33 27/28/34
f 20/29/27 19/30/26 27/31/34 28/32/35
f 21/33/28 20/34/27 28/35/35 29/36/36
f 13/37/21 21/38/28 29/39/36 22/40/29
f 22/41/29 14/42/37 23/43/30
f 23/44/30 14/45/37 24/46/31
f 24/47/31 14/48/37 25/49/32
f 25/50/32 14/51/37 26/52/33
f 26/53/33 14/54/37 27/55/34
f 27/50/34 14/51/37 28/52/35
f 29/56/36 14/57/37 22/58/29
f 28/59/35 14/60/37 29/61/36
