# Blender v2.76 (sub 0) OBJ File: 'br_pine_low_poly.blend'
# www.blender.org
mtllib br_lowpoly_bush_02.mtl
o Icosphere.002
v 0.291213 -0.573027 0.275645
v 0.579383 -0.010250 0.689621
v -0.011665 -0.103657 0.831106
v -0.616974 -0.320203 0.129260
v -0.290147 -0.140519 -0.797890
v 0.707354 -0.314082 -0.509232
v 0.032361 0.529725 0.845434
v -0.450129 0.549232 0.428299
v -0.675467 0.444515 -0.768466
v 0.377347 0.437206 -0.705877
v 0.856354 0.389721 -0.019054
v 0.133581 1.003044 -0.201214
v -0.621215 0.773931 -0.170083
v -0.158274 1.053195 0.113543
v -0.329360 1.000837 -0.484840
vt 0.348846 0.325409
vt 0.221467 0.325409
vt 0.221467 0.198029
vt 0.169159 0.145721
vt 0.041779 0.145721
vt 0.041779 0.018342
vt 0.993377 0.540252
vt 0.865998 0.540252
vt 0.865998 0.412873
vt 0.977752 0.337127
vt 0.850373 0.337127
vt 0.850373 0.209748
vt 0.985565 0.567596
vt 0.858185 0.567596
vt 0.858185 0.440217
vt 0.184784 0.341033
vt 0.057404 0.341033
vt 0.057404 0.213654
vt 0.356658 0.548065
vt 0.229279 0.548065
vt 0.229279 0.420685
vt 0.981658 0.782440
vt 0.854279 0.782440
vt 0.854279 0.655060
vt 0.805877 0.528533
vt 0.678498 0.528533
vt 0.678498 0.401154
vt 0.364471 0.329315
vt 0.237092 0.329315
vt 0.237092 0.201935
vt 0.184784 0.766815
vt 0.057404 0.766815
vt 0.057404 0.639435
vt 0.794158 0.770721
vt 0.666779 0.770721
vt 0.666779 0.643342
vt 0.563690 0.563690
vt 0.436310 0.563690
vt 0.436310 0.500000
vt 0.436310 0.436310
vt 0.977752 0.766815
vt 0.850373 0.766815
vt 0.850373 0.639435
vt 0.786346 0.532440
vt 0.658967 0.532440
vt 0.658967 0.405060
vt 0.798065 0.762908
vt 0.670685 0.762908
vt 0.670685 0.635529
vt 0.794158 0.954315
vt 0.666779 0.954315
vt 0.666779 0.826935
vt 0.730469 0.890625
vt 0.356658 0.766815
vt 0.292969 0.766815
vt 0.292969 0.703125
vt 0.169159 0.762908
vt 0.041779 0.762908
vt 0.041779 0.699219
vt 0.041779 0.635529
vt 0.981658 0.770721
vt 0.854279 0.770721
vt 0.854279 0.643342
vt 0.229279 0.703125
vt 0.229279 0.639435
vt 0.546875 0.878906
vt 0.546875 0.942596
vt 0.483185 0.878906
vt 0.229279 0.766815
vn 0.214600 -0.949200 0.229900
vn 0.702200 -0.167500 0.692000
vn -0.231100 -0.394000 0.889600
vn 0.659000 -0.560400 -0.501700
vn -0.768500 -0.614600 0.177800
vn -0.264300 -0.541200 -0.798300
vn 0.937000 0.346800 0.040800
vn 0.046900 0.484600 0.873500
vn -0.706300 0.382200 0.595900
vn -0.704800 0.202800 -0.679800
vn 0.461900 0.327300 -0.824300
vn -0.865500 0.485800 0.121700
vn 0.343200 0.923900 -0.169200
vn -0.238600 0.899400 0.366100
vn -0.240600 0.839200 -0.487700
usemtl Material.002
s 1
f 1/1/1 2/2/2 3/3/3
f 2/4/2 1/5/1 6/6/4
f 1/7/1 3/8/3 4/9/5
f 1/10/1 4/11/5 5/12/6
f 1/13/1 5/14/6 6/15/4
f 2/16/2 6/17/4 11/18/7
f 3/19/3 2/20/2 7/21/8
f 4/22/5 3/23/3 8/24/9
f 5/25/6 4/26/5 9/27/10
f 6/28/4 5/29/6 10/30/11
f 2/31/2 11/32/7 7/33/8
f 3/34/3 7/35/8 8/36/9
f 4/37/5 8/38/9 13/39/12 9/40/10
f 5/41/6 9/42/10 10/43/11
f 6/44/4 10/45/11 11/46/7
f 7/47/8 11/48/7 12/49/13
f 8/50/9 7/51/8 12/52/13 14/53/14
f 9/54/10 13/55/12 15/56/15
f 10/57/11 9/58/10 15/59/15 12/60/13
f 11/61/7 10/62/11 12/63/13
f 15/56/15 14/64/14 12/65/13
f 15/66/15 13/67/12 14/68/14
f 13/55/12 8/69/9 14/64/14
